# xmcd
#
# Track frame offsets:
#	150
#	13505
#	30144
#	47270
#	62476
#	78062
#	93255
#	110905
#	125044
#	140027
#	156605
#	170222
#	184208
#	200675
#
# Disc length: 2875 seconds
#
# Revision: 1
# Processed by: cddbd v1.5.1PL0 Copyright (c) Steve Scherf et al.
# Submitted via: EasyCDDAExtractor 7.0.6.1
#
DISCID=be0b390e
DTITLE=Varios Artistas - Brasil Mágico (Bossa nova en sax)
DYEAR=1996
DGENRE=Sax
TTITLE0=La chica de ipanema
TTITLE1=Insensatez
TTITLE2=Tristéza
TTITLE3=Desafinado
TTITLE4=Corcovado
TTITLE5=Más que nada
TTITLE6=Usted Abuso
TTITLE7=Samba de verano
TTITLE8=Te deseo amor
TTITLE9=Meditación
TTITLE10=Agua de beber
TTITLE11=Bahía
TTITLE12=O'barquinho
TTITLE13=Y la amo
EXTD=
EXTT0=
EXTT1=
EXTT2=
EXTT3=
EXTT4=
EXTT5=
EXTT6=
EXTT7=
EXTT8=
EXTT9=
EXTT10=
EXTT11=
EXTT12=
EXTT13=
PLAYORDER=
